<?xml version="1.0" encoding="UTF-8" standalone="no"?>
<!DOCTYPE svg PUBLIC "-//W3C//DTD SVG 1.1//EN" "http://www.w3.org/Graphics/SVG/1.1/DTD/svg11.dtd">
<!-- Created with Vectornator (http://vectornator.io/) -->
<svg height="100%" stroke-miterlimit="10" style="fill-rule:nonzero;clip-rule:evenodd;stroke-linecap:round;stroke-linejoin:round;" version="1.1" viewBox="170.533 806.481 3007.93 826.128" width="100%" xml:space="preserve" xmlns="http://www.w3.org/2000/svg" xmlns:vectornator="http://vectornator.io" xmlns:xlink="http://www.w3.org/1999/xlink">
<defs/>
<g id="Layer-2" vectornator:layerName="Layer 2">
<path d="M201.987 835.722C200.334 1577.73 200.185 1550.69 200.509 1559.1C200.832 1567.5 199.775 1598.87 199.775 1598.87C199.775 1598.87 244.507 1588.72 271.883 1588.13C312.668 1587.25 352.824 1584.11 334.688 1584.56" fill="none" opacity="1" stroke="#007aff" stroke-linecap="round" stroke-linejoin="round" stroke-width="58.4826" vectornator:layerName="Curve 1"/>
<path d="M467.917 1300.32C476.792 1299.38 493.142 1297.95 502.484 1300.28C511.827 1302.62 556.155 1302.02 535.327 1301.65C525.228 1301.47 551.02 1301.29 558.764 1301.4C565.066 1301.5 570.692 1301.88 573.837 1302.5C580.844 1303.91 600.114 1305.35 604.785 1304.88C609.456 1304.41 618.573 1304.21 623.711 1303.27C628.849 1302.32 636.586 1301.84 640.118 1298.19C643.649 1294.54 641.683 1265.72 641.683 1257.69C641.683 1249.66 640.256 1227.69 640.256 1217.3C640.256 1206.91 638.105 1172.96 635.272 1161.63C632.438 1150.29 625.889 1129.03 609.829 1108.76C593.768 1088.49 589.099 1084.87 572.018 1077.9C554.937 1070.93 553.116 1067.02 531.362 1075.86C509.609 1084.69 510.528 1091.12 501.058 1104.81C491.587 1118.51 483.877 1141.13 476.929 1162.51C469.981 1183.89 465.463 1234.23 464.518 1249.65C463.574 1265.06 467.422 1349.9 466.016 1372.2C464.611 1394.5 467.07 1418.29 468.004 1429.5C468.939 1440.71 471.867 1469.44 472.801 1486.26C473.735 1503.08 491.013 1547.77 492.881 1550.57C494.75 1553.38 512.87 1574.76 525.95 1578.02C539.03 1581.29 539.535 1582.44 557.286 1581.5C575.037 1580.56 583.839 1575.62 596.452 1567.12C609.064 1558.62 617.776 1542.34 625.25 1529.59C632.724 1516.84 637.854 1493.17 639.256 1486.56C640.657 1479.95 640.082 1455.67 640.082 1452.37" fill="none" opacity="1" stroke="#007aff" stroke-linecap="round" stroke-linejoin="round" stroke-width="58.4826" vectornator:layerName="Curve 2"/>
<path d="M936.36 1072.23C938.092 1083.31 935.485 1098.88 935.134 1114.81C934.784 1130.74 934.369 1142.84 934.887 1167.48C935.405 1192.12 936.55 1242.65 936.897 1259.62C937.243 1276.59 938.994 1309.16 937.593 1326.82C936.193 1344.49 935.447 1398.52 936.139 1413.42C936.832 1428.31 933.712 1471.87 932.641 1506.94C931.57 1542.01 931.92 1557.52 931.038 1569.81C930.155 1582.11 934.308 1600.47 933.958 1602.89C933.608 1605.32 919.224 1578.23 929.93 1529.22C940.636 1480.2 908.629 1551.41 893.096 1563.89C877.564 1576.36 871.986 1581.82 843.806 1581.3C815.627 1580.79 800.139 1567.92 790.365 1551.83C780.591 1535.74 779.146 1511.4 774.531 1489.15C769.915 1466.89 769.255 1462.62 767.248 1414.05C765.241 1365.48 767.896 1388.73 767.315 1326.28C766.734 1263.84 764.88 1291.08 768.042 1241.6C771.204 1192.12 768.924 1193.91 775.864 1160C782.804 1126.08 783.528 1118.56 797.485 1102.22C811.442 1085.89 835.117 1078.99 839.022 1077.69C842.927 1076.39 866.013 1072.62 881.947 1085.44C897.881 1098.25 902.094 1103.3 909.369 1109.53C916.643 1115.77 920.353 1117.1 930.052 1122.65" fill="none" opacity="1" stroke="#007aff" stroke-linecap="round" stroke-linejoin="round" stroke-width="58.4826" vectornator:layerName="Curve 3"/>
<path d="M1056.92 1598.87C1055 1574.55 1055.89 1563.6 1055.97 1522.85C1056.05 1482.11 1056.61 1489.5 1058.93 1421.12C1061.26 1352.75 1059.3 1382.6 1059.87 1322.06C1060.45 1261.53 1059.13 1303.85 1061.88 1232.58C1061.88 1232.58 1059.87 1200.16 1060.99 1156.05C1062.11 1111.95 1057.8 1098.05 1057.04 1072.23C1056.27 1046.4 1057.58 1122.65 1082.79 1107.4C1108 1092.14 1105.1 1086.63 1132.7 1079.55C1160.3 1072.46 1181.64 1104.65 1186.4 1110.36" fill="none" opacity="1" stroke="#007aff" stroke-linecap="round" stroke-linejoin="round" stroke-width="58.4826" vectornator:layerName="Curve 4"/>
<path d="M1312.24 1599.07L1314.79 1464.41C1314.79 1464.41 1318.58 1410.45 1319.84 1359.42C1321.1 1308.39 1320.81 1333.46 1319.82 1260.28C1318.84 1187.09 1315.9 1066.68 1315.9 1066.68L1321.49 1137.96L1364.88 1097.25C1364.88 1097.25 1380.88 1084.36 1399.55 1083.36C1418.22 1082.36 1434.3 1095.34 1435.07 1096.12C1435.07 1096.12 1455.14 1112.07 1466.34 1139.67C1477.53 1167.28 1472.95 1144.73 1479.85 1206.53C1486.76 1268.34 1484.87 1386.91 1484.87 1386.91L1477.99 1603.37" fill="none" opacity="1" stroke="#007aff" stroke-linecap="round" stroke-linejoin="round" stroke-width="58.4826" vectornator:layerName="Curve 5"/>
<path d="M1742.89 839.302L1742.88 948.18L1742.72 1123.43L1743.29 1300.9L1741.65 1466.45L1740.74 1581.82L1878.16 1581.82" fill="none" opacity="1" stroke="#007aff" stroke-linecap="round" stroke-linejoin="round" stroke-width="58.4826" vectornator:layerName="Curve 6"/>
<path d="M2009.87 1066.68L2010.66 1173.69C2010.66 1173.69 2008.32 1192.12 2009.04 1217.3C2009.04 1217.3 2009.25 1233.92 2010.14 1254.06C2011.06 1274.82 2010.37 1299.52 2009.76 1326.28C2006.69 1460.45 2009.64 1448.12 2009.64 1448.12L2008.05 1593.54" fill="none" opacity="1" stroke="#007aff" stroke-linecap="round" stroke-linejoin="round" stroke-width="58.4826" vectornator:layerName="Curve 7"/>
<path d="M2154.44 839.851L2155.78 1141.87L2143.57 1587.82L2146.38 1501.41C2146.38 1501.41 2176.11 1553.22 2205.01 1570C2233.91 1586.77 2243.79 1579.49 2266.16 1571.94C2288.53 1564.4 2282.59 1563.46 2294.5 1541.79C2306.41 1520.11 2307.31 1527.08 2313.8 1485.24C2320.29 1443.4 2318.06 1432.09 2320.47 1374.41L2323.44 1254.54C2323.44 1254.54 2318.16 1197.99 2308.36 1157.28C2298.56 1116.57 2302.14 1112.99 2284.23 1091.69C2266.32 1070.39 2257.09 1073.26 2236.73 1072.09C2216.38 1070.91 2221.28 1070.78 2202.81 1087C2184.33 1103.22 2162.85 1136.97 2162.85 1136.97" fill="none" opacity="1" stroke="#007aff" stroke-linecap="round" stroke-linejoin="round" stroke-width="58.4826" vectornator:layerName="Curve 8"/>
<path d="M2452.54 1594.91L2450.87 1056.15L2452.94 1133C2452.94 1133 2485.48 1099.88 2512.78 1086.64C2540.08 1073.39 2543.68 1074.79 2562.13 1080.01C2580.59 1085.24 2590.38 1107.86 2590.38 1107.86" fill="none" opacity="1" stroke="#007aff" stroke-linecap="round" stroke-linejoin="round" stroke-width="58.4826" vectornator:layerName="Curve 9"/>
<path d="M2874.72 1584.84L2873.97 1064.51L2872.13 1127.83C2872.13 1127.83 2847.42 1101.79 2821.37 1089.42C2795.32 1077.05 2795.21 1073.6 2774.12 1078.8C2753.04 1084.01 2751.05 1088.63 2737.03 1110.25C2723.01 1131.87 2718.04 1165.28 2718.04 1165.28C2718.04 1165.28 2709.95 1178.61 2708.25 1254.39C2706.54 1330.16 2711.21 1468.4 2711.21 1468.4C2711.21 1468.4 2716.61 1524.09 2733.84 1551.82C2751.07 1579.56 2754.92 1574.45 2780.14 1579.34C2805.36 1584.23 2813.77 1582.98 2834.74 1571.39C2855.7 1559.8 2854.19 1549.87 2864 1532.98C2873.81 1516.08 2873.97 1503.8 2873.97 1503.8" fill="none" opacity="1" stroke="#007aff" stroke-linecap="round" stroke-linejoin="round" stroke-width="58.4826" vectornator:layerName="Curve 10"/>
<path d="M3121.25 1107.06C3119.6 1106.29 3114.63 1103.99 3114.63 1103.99C3114.63 1103.99 3094.46 1081.44 3063.8 1080.44C3033.13 1079.44 3031.43 1083.02 3012.64 1104.19C2993.85 1125.36 2988.63 1165.11 2988.63 1165.11C2988.63 1165.11 2984.95 1188.86 3001.54 1231.2C3018.13 1273.54 3054.98 1334.46 3054.98 1334.46C3054.98 1334.46 3097.91 1378.59 3119 1408.8C3140.09 1439.01 3139.34 1455.29 3139.34 1455.29C3139.34 1455.29 3153.17 1485.23 3148.12 1513.89C3143.07 1542.54 3119.15 1569.91 3119.15 1569.91C3119.15 1569.91 3075.83 1587.94 3047.13 1582.3C3018.43 1576.65 3004.33 1547.33 3004.33 1547.33" fill="none" opacity="1" stroke="#007aff" stroke-linecap="round" stroke-linejoin="round" stroke-width="58.4826" vectornator:layerName="Curve 11"/>
<path d="M2004.34 940.593L1996.52 972.577C1996.52 972.577 2004.73 913.561 2007.47 945.462" fill="none" opacity="1" stroke="#007aff" stroke-linecap="round" stroke-linejoin="round" stroke-width="58.4826" vectornator:layerName="Curve 12"/>
</g>
</svg>
